<svg width="20" height="20" viewBox="0 0 20 20" fill="none" xmlns="http://www.w3.org/2000/svg">
<path fill-rule="evenodd" clip-rule="evenodd" d="M2.02188 3.0166C2.00986 3.02865 2 4.03912 2 5.26216V7.4858H4.22995H6.45991V5.24636V3.00696L4.25184 3.00084C3.03742 2.99747 2.03394 3.00458 2.02188 3.0166ZM13.8459 3.02276C13.8372 3.03141 13.8301 4.03928 13.8301 5.26246V7.48641L16.0506 7.47665L18.2711 7.4669V5.23778V3.00862L16.0664 3.00783C14.8537 3.00737 13.8545 3.0141 13.8459 3.02276ZM7.93394 10.1312V17.2371H10.164H12.394L12.3845 10.141L12.375 3.04479L10.1544 3.03504L7.93394 3.02529V10.1312ZM13.8679 15.045V17.2371H16.0789H18.29V15.045V12.8528H16.0789H13.8679V15.045Z" fill="url(#paint0_linear_48_2)"/>
<defs>

</defs>
</svg>
